<?xml version="1.0" standalone="no"?>
<!DOCTYPE svg PUBLIC "-//W3C//DTD SVG 20010904//EN"
 "http://www.w3.org/TR/2001/REC-SVG-20010904/DTD/svg10.dtd">
<svg version="1.0" xmlns="http://www.w3.org/2000/svg"
 width="1590.000000pt" height="1157.000000pt" viewBox="0 0 1590.000000 1157.000000"
 preserveAspectRatio="xMidYMid meet">

<g transform="translate(0.000000,1157.000000) scale(0.100000,-0.100000)"
fill="#000000" stroke="none">
<path d="M3855 9358 c-3 -7 -4 -1835 -3 -4063 l3 -4050 570 0 570 0 3 1538 2
1537 1184 0 1183 0 27 -102 c385 -1443 1485 -2546 2879 -2888 317 -77 497
-100 857 -107 307 -6 498 6 735 47 1082 185 2021 797 2632 1715 349 523 568
1110 654 1749 14 102 22 236 26 414 l6 262 -2402 0 -2401 0 0 -505 0 -505
1759 0 c968 0 1762 -3 1764 -7 9 -15 -83 -248 -157 -398 -144 -295 -297 -513
-521 -744 -447 -458 -970 -727 -1615 -828 -164 -26 -616 -26 -780 0 -436 69
-789 204 -1140 439 -1014 677 -1498 1964 -1185 3153 131 500 381 933 749 1300
437 436 967 705 1588 807 185 30 650 33 833 4 288 -45 541 -124 800 -251 322
-158 586 -357 826 -622 l84 -93 667 0 c367 0 669 4 672 8 13 22 -227 412 -373
605 -170 226 -455 522 -661 689 -369 297 -784 524 -1222 669 -705 232 -1507
248 -2253 43 -1107 -305 -2042 -1079 -2545 -2109 -236 -482 -365 -964 -402
-1497 l-12 -178 -1128 0 -1128 0 2 1428 3 1427 1076 3 1075 2 262 553 c144
303 262 555 262 560 0 4 -860 7 -1910 7 -1519 0 -1912 -3 -1915 -12z"/>
<path d="M14290 5844 l0 -265 38 3 37 3 5 205 5 205 50 -205 50 -205 37 -3
c35 -3 37 -1 47 35 6 21 29 115 53 208 l43 170 5 -205 5 -205 38 -3 37 -3 0
265 0 266 -65 0 -64 0 -10 -37 c-6 -21 -24 -99 -41 -173 -36 -155 -39 -165
-45 -158 -3 3 -21 70 -40 149 -20 79 -40 161 -46 182 l-10 37 -64 0 -65 0 0
-266z"/>
<path d="M14832 5848 l3 -263 43 -3 42 -3 0 115 0 116 53 0 c75 0 89 -18 97
-123 3 -45 9 -88 13 -94 5 -7 25 -13 46 -13 l37 0 -3 63 c-6 113 -14 146 -39
176 -22 26 -22 30 -7 42 42 35 55 126 27 185 -26 54 -56 64 -194 64 l-120 0 2
-262z m218 177 c14 -13 20 -31 20 -62 0 -62 -24 -83 -95 -83 l-55 0 0 78 c0
43 3 82 8 86 13 14 101 0 122 -19z"/>
<path d="M1930 2610 l0 -320 55 0 55 0 0 255 0 255 356 0 355 0 23 -52 c77
-177 100 -541 47 -743 -85 -320 -320 -500 -713 -546 -126 -14 -394 -6 -493 16
-344 75 -531 249 -602 559 -23 101 -23 371 0 489 19 96 66 235 103 310 l24 47
-63 0 -64 0 -36 -77 c-81 -179 -111 -348 -104 -593 5 -194 23 -276 92 -415
106 -216 317 -374 585 -440 194 -47 497 -50 696 -7 307 68 538 248 640 500
107 266 93 667 -37 1003 l-30 79 -445 0 -444 0 0 -320z"/>
</g>
</svg>
